<?xml version="1.0" encoding="UTF-8"?>
<svg id="Layer_2" data-name="Layer 2" xmlns="http://www.w3.org/2000/svg" viewBox="0 0 728 703.54">
  <defs>
    <style>
      .cls-1 {
        fill: none;
        stroke: rgba(255, 255, 255, .85);
        stroke-linecap: round;
        stroke-width: 17px;
      }

      .cls-2 {
        fill: #fd2c28;
      }

      .cls-3 {
        fill: #c60000;
      }
    </style>
  </defs>
  <g id="Layer_1-2" data-name="Layer 1">
    <path class="cls-2" d="M351.13,117c-50.61,0-116.02-43.7-197.79-12.05C46.84,150.49,17.14,218.7,2.15,334.32c-16.95,130.73,68.87,277.95,172.61,325.17,103.74,47.22,222.17,63.05,340.14,14.51,137.51-56.58,196.1-161.52,211.85-326.26,16.22-169.63-130.18-251.15-177.32-258.31-92.51-14.05-143.61,27.57-198.3,27.57Z"/>
    <path class="cls-2" d="M394.08,28.24c.95-7.27-1.09-14.32-6.12-19.62C382.96,3.33,375.38,.23,367.33,.01c-8.05-.22-15.78,2.47-21.07,7.49-5.31,5.02-7.73,11.95-7.16,19.26,.12,1.63,.25,3.25,.37,4.88,2.21,29.28,4.42,58.57,6.64,87.85,.12,1.63,.25,3.25,.37,4.88,.32,4.2,2.44,8.28,5.63,11.32,3.21,3.05,7.23,4.82,11.43,4.94,4.2,.11,8.32-1.44,11.68-4.31,3.35-2.87,5.69-6.83,6.24-11,.21-1.62,.42-3.24,.63-4.85,3.79-29.12,7.57-58.25,11.36-87.37,.21-1.62,.42-3.24,.63-4.85Z"/>
    <line class="cls-1" x1="644.95" y1="190.51" x2="645.65" y2="192.38"/>
    <path class="cls-1" d="M664.73,231.42c14.47,51.59,11.07,82.56,2.55,122.84"/>
    <path class="cls-3" d="M376.88,140.28c-4.29,.98-8.26,.16-23.49-4.92-8.9-4.49-13.48-6.4-18.44-10.7-10.73-9.32-2.66,12.35,4.89,19.27,7.55,6.93,19.99,12.46,36.51,11.05,13.21-1.12,19.96-12.37,21.76-20.99-5.12,2.5-11.05,3.96-21.24,6.28Z"/>
    <path class="cls-3" d="M368.34,627.54c-32.54,0-49.11,30.67-92.71,34.67-36.44,0-53.06-8.67-106.42-21.33-25.99-6.17,75.06,37.55,120.39,42,47.5,4.67,53.36,6.67,78.74,6.67s86.55-3.33,130.8-18c19.23-6.38,73.52-33.09,50.11-27.33-32.54,8-66.03,26-105.72,12.67-18.87-6.34-42.64-29.33-75.18-29.33Z"/>
  </g>
</svg>